<?xml version="1.0" encoding="iso-8859-1"?>
<!-- Generator: Adobe Illustrator 19.0.0, SVG Export Plug-In . SVG Version: 6.00 Build 0)  -->
<svg version="1.1" id="Layer_1" xmlns="http://www.w3.org/2000/svg" xmlns:xlink="http://www.w3.org/1999/xlink" x="0px" y="0px"
	 viewBox="0 0 512 512" style="enable-background:new 0 0 512 512;" xml:space="preserve">
<rect x="143.358" y="32.341" style="fill:#E0E0D3;" width="357.976" height="447.322"/>
<path style="fill:#333E48;" d="M447.746,105.568H196.952c-4.703,0-8.516-3.812-8.516-8.516s3.813-8.516,8.516-8.516h250.794
	c4.703,0,8.516,3.812,8.516,8.516C456.262,101.755,452.449,105.568,447.746,105.568z"/>
<g>
	<path style="fill:#5C6670;" d="M447.746,179.11H196.952c-4.703,0-8.516-3.812-8.516-8.516s3.813-8.516,8.516-8.516h250.794
		c4.703,0,8.516,3.812,8.516,8.516S452.449,179.11,447.746,179.11z"/>
	<path style="fill:#5C6670;" d="M447.746,215.883h-57.252c-4.704,0-8.516-3.812-8.516-8.516s3.812-8.516,8.516-8.516h57.252
		c4.703,0,8.516,3.812,8.516,8.516C456.262,212.071,452.449,215.883,447.746,215.883z"/>
	<path style="fill:#5C6670;" d="M366.382,215.883h-169.43c-4.703,0-8.516-3.812-8.516-8.516s3.813-8.516,8.516-8.516h169.43
		c4.704,0,8.516,3.812,8.516,8.516C374.898,212.071,371.085,215.883,366.382,215.883z"/>
	<path style="fill:#5C6670;" d="M447.746,252.655H307.671c-4.704,0-8.516-3.812-8.516-8.516s3.812-8.516,8.516-8.516h140.076
		c4.703,0,8.516,3.812,8.516,8.516S452.449,252.655,447.746,252.655z"/>
	<path style="fill:#5C6670;" d="M284.605,252.655h-87.652c-4.703,0-8.516-3.812-8.516-8.516s3.813-8.516,8.516-8.516h87.652
		c4.704,0,8.516,3.812,8.516,8.516S289.309,252.655,284.605,252.655z"/>
</g>
<rect x="143.358" y="32.341" style="opacity:0.1;enable-background:new    ;" width="246.125" height="447.322"/>
<g>
	<path style="fill:#5C6670;" d="M447.746,326.196H297.127c-4.704,0-8.516-3.812-8.516-8.516c0-4.704,3.812-8.516,8.516-8.516
		h150.618c4.703,0,8.516,3.812,8.516,8.516C456.262,322.385,452.449,326.196,447.746,326.196z"/>
	<path style="fill:#5C6670;" d="M267.773,326.196h-70.821c-4.703,0-8.516-3.812-8.516-8.516c0-4.704,3.813-8.516,8.516-8.516h70.821
		c4.704,0,8.516,3.812,8.516,8.516C276.289,322.385,272.476,326.196,267.773,326.196z"/>
	<path style="fill:#5C6670;" d="M447.746,362.967h-81.364c-4.704,0-8.516-3.812-8.516-8.516c0-4.704,3.812-8.516,8.516-8.516h81.364
		c4.703,0,8.516,3.812,8.516,8.516C456.262,359.154,452.449,362.967,447.746,362.967z"/>
	<path style="fill:#5C6670;" d="M337.669,362.967H196.952c-4.703,0-8.516-3.812-8.516-8.516c0-4.704,3.813-8.516,8.516-8.516
		h140.716c4.704,0,8.516,3.812,8.516,8.516C346.184,359.154,342.371,362.967,337.669,362.967z"/>
	<path style="fill:#5C6670;" d="M447.746,399.738H196.952c-4.703,0-8.516-3.813-8.516-8.516c0-4.704,3.813-8.516,8.516-8.516
		h250.794c4.703,0,8.516,3.812,8.516,8.516C456.262,395.925,452.449,399.738,447.746,399.738z"/>
	<path style="fill:#5C6670;" d="M353.802,436.507H196.952c-4.703,0-8.516-3.812-8.516-8.516c0-4.704,3.813-8.516,8.516-8.516
		h156.849c4.704,0,8.516,3.812,8.516,8.516C362.317,432.695,358.505,436.507,353.802,436.507z"/>
</g>
<path style="fill:#333E48;" d="M343.942,31.224c0-12.49-10.219-22.708-22.708-22.708H200.011c-12.49,0-22.708,10.219-22.708,22.708
	v449.552c0,12.49,10.219,22.708,22.708,22.708h121.222c12.49,0,22.708-10.219,22.708-22.708V31.224z"/>
<circle style="fill:#D49000;" cx="260.625" cy="416.37" r="46.088"/>
<circle style="fill:#333E48;" cx="260.625" cy="416.37" r="19.973"/>
<rect x="211.222" y="57.56" style="fill:#E0E0D3;" width="98.804" height="187.969"/>
<g>
	<path style="fill:#1E252B;" d="M282.383,123.728h-43.524c-4.703,0-8.516-3.812-8.516-8.516s3.813-8.516,8.516-8.516h43.524
		c4.704,0,8.516,3.812,8.516,8.516C290.898,119.915,287.087,123.728,282.383,123.728z"/>
	<path style="fill:#1E252B;" d="M282.383,154.384h-43.524c-4.703,0-8.516-3.812-8.516-8.516c0-4.704,3.813-8.516,8.516-8.516h43.524
		c4.704,0,8.516,3.812,8.516,8.516C290.898,150.572,287.087,154.384,282.383,154.384z"/>
</g>
<path style="fill:#0082CA;" d="M177.303,31.224c0-12.49-10.219-22.708-22.708-22.708H33.373c-12.49,0-22.708,10.219-22.708,22.708
	v449.552c0,12.49,10.219,22.708,22.708,22.708h121.222c12.49,0,22.708-10.219,22.708-22.708V31.224H177.303z"/>
<circle style="fill:#D49000;" cx="93.979" cy="416.37" r="46.088"/>
<circle style="fill:#333E48;" cx="93.979" cy="416.37" r="19.973"/>
<rect x="44.588" y="57.56" style="fill:#E0E0D3;" width="98.804" height="187.969"/>
<g>
	<path style="fill:#1E252B;" d="M115.744,123.728H72.22c-4.703,0-8.516-3.812-8.516-8.516s3.813-8.516,8.516-8.516h43.524
		c4.703,0,8.516,3.812,8.516,8.516C124.259,119.915,120.447,123.728,115.744,123.728z"/>
	<path style="fill:#1E252B;" d="M115.744,154.384H72.22c-4.703,0-8.516-3.812-8.516-8.516c0-4.704,3.813-8.516,8.516-8.516h43.524
		c4.703,0,8.516,3.812,8.516,8.516C124.259,150.572,120.447,154.384,115.744,154.384z"/>
	<path style="fill:#1E252B;" d="M143.382,49.045H44.583c-4.703,0-8.516,3.812-8.516,8.516v187.97c0,4.704,3.813,8.516,8.516,8.516
		h98.8c4.703,0,8.516-3.812,8.516-8.516V57.56C151.898,52.857,148.085,49.045,143.382,49.045z M134.866,237.015H53.099V66.076
		h81.768v170.939H134.866z M93.983,361.764c-30.109,0-54.605,24.496-54.605,54.605s24.496,54.605,54.605,54.605
		s54.604-24.496,54.604-54.605S124.092,361.764,93.983,361.764z M93.983,453.943c-20.718,0-37.573-16.855-37.573-37.573
		s16.855-37.573,37.573-37.573c20.717,0,37.572,16.855,37.572,37.573S114.7,453.943,93.983,453.943z M501.335,23.826H351.564
		C348.233,10.17,335.902,0,321.233,0H200.011C191.07,0,183,3.783,177.303,9.827C171.605,3.783,163.536,0,154.594,0H33.373
		C16.156,0,2.149,14.008,2.149,31.224v449.552C2.149,497.992,16.156,512,33.373,512h121.222c8.941,0,17.011-3.783,22.708-9.827
		c5.698,6.044,13.767,9.827,22.708,9.827h121.221c14.666,0,26.995-10.167,30.329-23.819h149.772c4.704,0,8.516-3.812,8.516-8.516
		V32.341C509.851,27.638,506.039,23.826,501.335,23.826z M168.787,480.776c0,7.826-6.366,14.193-14.193,14.193H33.373
		c-7.826,0-14.193-6.366-14.193-14.193V31.224c0-7.826,6.366-14.193,14.193-14.193h121.222c7.826,0,14.193,6.366,14.193,14.193
		v449.552H168.787z M335.426,480.776c0,7.826-6.366,14.193-14.193,14.193H200.011c-7.826,0-14.193-6.366-14.193-14.193V31.224
		c0-7.826,6.366-14.193,14.193-14.193h121.222c7.826,0,14.193,6.366,14.193,14.193V480.776z M492.819,471.149H352.457V40.857
		h140.362L492.819,471.149L492.819,471.149z M310.021,49.045h-98.8c-4.703,0-8.516,3.812-8.516,8.516v187.97
		c0,4.704,3.813,8.516,8.516,8.516h98.8c4.704,0,8.516-3.812,8.516-8.516V57.56C318.537,52.857,314.725,49.045,310.021,49.045z
		 M301.505,237.015h-81.768V66.076h81.768V237.015z M260.622,361.764c-30.109,0-54.604,24.496-54.604,54.605
		s24.494,54.605,54.604,54.605s54.604-24.496,54.604-54.605S290.731,361.764,260.622,361.764z M260.622,453.943
		c-20.718,0-37.572-16.855-37.572-37.573s16.854-37.573,37.572-37.573c20.717,0,37.572,16.855,37.572,37.573
		S281.339,453.943,260.622,453.943z"/>
</g>
<g>
</g>
<g>
</g>
<g>
</g>
<g>
</g>
<g>
</g>
<g>
</g>
<g>
</g>
<g>
</g>
<g>
</g>
<g>
</g>
<g>
</g>
<g>
</g>
<g>
</g>
<g>
</g>
<g>
</g>
</svg>
